<mxfile host="app.diagrams.net" agent="Mozilla/5.0 (Windows NT 10.0; Win64; x64) AppleWebKit/537.36 (KHTML, like Gecko) Chrome/136.0.0.0 Safari/537.36" version="27.0.5">
  <diagram name="Página-1" id="6jcjdYlIvE20lCFeFSQ2">
    <mxGraphModel dx="1678" dy="914" grid="1" gridSize="10" guides="1" tooltips="1" connect="1" arrows="1" fold="1" page="1" pageScale="1" pageWidth="827" pageHeight="1169" math="0" shadow="0">
      <root>
        <mxCell id="0" />
        <mxCell id="1" parent="0" />
        <mxCell id="wnbb1TP-m0Ks3xtz-Brg-1" value="&lt;h1&gt;&lt;font face=&quot;Times New Roman&quot;&gt;Diagrama de caso de uso&lt;/font&gt;&lt;/h1&gt;" style="text;html=1;align=center;verticalAlign=middle;resizable=0;points=[];autosize=1;strokeColor=none;fillColor=none;fontSize=11;" vertex="1" parent="1">
          <mxGeometry x="283" y="100" width="260" height="70" as="geometry" />
        </mxCell>
        <mxCell id="wnbb1TP-m0Ks3xtz-Brg-2" value="" style="endArrow=none;html=1;rounded=0;entryX=0.98;entryY=0.063;entryDx=0;entryDy=0;entryPerimeter=0;spacing=5;fontSize=17;strokeWidth=2;strokeColor=#959595;exitX=0.009;exitY=0.075;exitDx=0;exitDy=0;exitPerimeter=0;" edge="1" parent="1" source="wnbb1TP-m0Ks3xtz-Brg-3" target="wnbb1TP-m0Ks3xtz-Brg-3">
          <mxGeometry width="50" height="50" relative="1" as="geometry">
            <mxPoint x="210" y="149" as="sourcePoint" />
            <mxPoint x="628.9000000000001" y="149.03999999999996" as="targetPoint" />
          </mxGeometry>
        </mxCell>
        <mxCell id="wnbb1TP-m0Ks3xtz-Brg-3" value="Otavio Moraes Mulato | 15 de maio de 2025" style="text;html=1;align=center;verticalAlign=middle;resizable=0;points=[];autosize=1;strokeColor=none;fillColor=none;fontFamily=Times New Roman;fontSize=15;" vertex="1" parent="1">
          <mxGeometry x="269" y="150" width="290" height="30" as="geometry" />
        </mxCell>
        <mxCell id="wnbb1TP-m0Ks3xtz-Brg-4" value="" style="rounded=0;whiteSpace=wrap;html=1;shadow=1;movable=0;resizable=0;rotatable=0;deletable=0;editable=0;locked=1;connectable=0;" vertex="1" parent="1">
          <mxGeometry x="184" y="200" width="460" height="720" as="geometry" />
        </mxCell>
        <mxCell id="wnbb1TP-m0Ks3xtz-Brg-5" value="&lt;h1&gt;&lt;font face=&quot;Times New Roman&quot;&gt;Jardim da Diana&lt;/font&gt;&lt;/h1&gt;" style="text;html=1;align=center;verticalAlign=middle;resizable=0;points=[];autosize=1;strokeColor=none;fillColor=none;fontSize=11;" vertex="1" parent="1">
          <mxGeometry x="324" y="190" width="180" height="70" as="geometry" />
        </mxCell>
        <mxCell id="wnbb1TP-m0Ks3xtz-Brg-6" value="Cliente" style="shape=umlActor;verticalLabelPosition=bottom;verticalAlign=top;html=1;outlineConnect=0;" vertex="1" parent="1">
          <mxGeometry x="540" y="270" width="60" height="130" as="geometry" />
        </mxCell>
        <mxCell id="wnbb1TP-m0Ks3xtz-Brg-7" value="Consultar os produtos ( + informações) e adicionar ao carrinho os produtos selecionados." style="ellipse;whiteSpace=wrap;html=1;fontFamily=Times New Roman;fillColor=#ffe6cc;strokeColor=#d79b00;" vertex="1" parent="1">
          <mxGeometry x="324" y="290" width="150" height="90" as="geometry" />
        </mxCell>
        <mxCell id="wnbb1TP-m0Ks3xtz-Brg-8" value="" style="endArrow=classic;html=1;rounded=0;exitX=0.5;exitY=0.5;exitDx=0;exitDy=0;exitPerimeter=0;entryX=1;entryY=0.5;entryDx=0;entryDy=0;" edge="1" parent="1" source="wnbb1TP-m0Ks3xtz-Brg-6" target="wnbb1TP-m0Ks3xtz-Brg-7">
          <mxGeometry width="50" height="50" relative="1" as="geometry">
            <mxPoint x="390" y="420" as="sourcePoint" />
            <mxPoint x="440" y="370" as="targetPoint" />
          </mxGeometry>
        </mxCell>
        <mxCell id="wnbb1TP-m0Ks3xtz-Brg-10" value="Responsável" style="shape=umlActor;verticalLabelPosition=bottom;verticalAlign=top;html=1;outlineConnect=0;" vertex="1" parent="1">
          <mxGeometry x="223" y="640" width="60" height="130" as="geometry" />
        </mxCell>
        <mxCell id="wnbb1TP-m0Ks3xtz-Brg-11" value="Cadastra produto" style="ellipse;whiteSpace=wrap;html=1;fillColor=#ffe6cc;strokeColor=#d79b00;" vertex="1" parent="1">
          <mxGeometry x="450" y="570" width="120" height="80" as="geometry" />
        </mxCell>
        <mxCell id="wnbb1TP-m0Ks3xtz-Brg-12" value="Cadastra-se para se tornar usuário para finalizar compra." style="ellipse;whiteSpace=wrap;html=1;fontFamily=Times New Roman;fillColor=#ffe6cc;strokeColor=#d79b00;" vertex="1" parent="1">
          <mxGeometry x="324" y="400" width="150" height="90" as="geometry" />
        </mxCell>
        <mxCell id="wnbb1TP-m0Ks3xtz-Brg-13" value="" style="endArrow=classic;html=1;rounded=0;entryX=1;entryY=0.5;entryDx=0;entryDy=0;" edge="1" parent="1">
          <mxGeometry width="50" height="50" relative="1" as="geometry">
            <mxPoint x="520" y="449" as="sourcePoint" />
            <mxPoint x="474.0000000000001" y="449" as="targetPoint" />
          </mxGeometry>
        </mxCell>
        <mxCell id="wnbb1TP-m0Ks3xtz-Brg-14" value="" style="endArrow=none;html=1;rounded=0;" edge="1" parent="1">
          <mxGeometry width="50" height="50" relative="1" as="geometry">
            <mxPoint x="520" y="450" as="sourcePoint" />
            <mxPoint x="520" y="335" as="targetPoint" />
            <Array as="points" />
          </mxGeometry>
        </mxCell>
        <mxCell id="wnbb1TP-m0Ks3xtz-Brg-15" value="Altera produto" style="ellipse;whiteSpace=wrap;html=1;fillColor=#ffe6cc;strokeColor=#d79b00;" vertex="1" parent="1">
          <mxGeometry x="450" y="665" width="120" height="80" as="geometry" />
        </mxCell>
        <mxCell id="wnbb1TP-m0Ks3xtz-Brg-16" value="Exclui produto" style="ellipse;whiteSpace=wrap;html=1;fillColor=#ffe6cc;strokeColor=#d79b00;" vertex="1" parent="1">
          <mxGeometry x="450" y="780" width="120" height="80" as="geometry" />
        </mxCell>
        <mxCell id="wnbb1TP-m0Ks3xtz-Brg-17" value="" style="endArrow=classic;html=1;rounded=0;entryX=0;entryY=0.5;entryDx=0;entryDy=0;exitX=0.5;exitY=0.5;exitDx=0;exitDy=0;exitPerimeter=0;" edge="1" parent="1" source="wnbb1TP-m0Ks3xtz-Brg-10" target="wnbb1TP-m0Ks3xtz-Brg-15">
          <mxGeometry width="50" height="50" relative="1" as="geometry">
            <mxPoint x="360" y="745" as="sourcePoint" />
            <mxPoint x="410" y="695" as="targetPoint" />
          </mxGeometry>
        </mxCell>
        <mxCell id="wnbb1TP-m0Ks3xtz-Brg-18" value="" style="endArrow=classic;html=1;rounded=0;entryX=0;entryY=0.5;entryDx=0;entryDy=0;" edge="1" parent="1" target="wnbb1TP-m0Ks3xtz-Brg-11">
          <mxGeometry width="50" height="50" relative="1" as="geometry">
            <mxPoint x="350" y="610" as="sourcePoint" />
            <mxPoint x="710" y="640" as="targetPoint" />
          </mxGeometry>
        </mxCell>
        <mxCell id="wnbb1TP-m0Ks3xtz-Brg-19" value="" style="endArrow=classic;html=1;rounded=0;entryX=0;entryY=0.5;entryDx=0;entryDy=0;" edge="1" parent="1" target="wnbb1TP-m0Ks3xtz-Brg-16">
          <mxGeometry width="50" height="50" relative="1" as="geometry">
            <mxPoint x="350" y="819" as="sourcePoint" />
            <mxPoint x="449.99999999999955" y="823" as="targetPoint" />
          </mxGeometry>
        </mxCell>
        <mxCell id="wnbb1TP-m0Ks3xtz-Brg-20" value="" style="endArrow=none;html=1;rounded=0;" edge="1" parent="1">
          <mxGeometry width="50" height="50" relative="1" as="geometry">
            <mxPoint x="350" y="820" as="sourcePoint" />
            <mxPoint x="350" y="610" as="targetPoint" />
          </mxGeometry>
        </mxCell>
      </root>
    </mxGraphModel>
  </diagram>
</mxfile>
